<svg width="742" height="200" viewBox="0 0 742 200" fill="none" xmlns="http://www.w3.org/2000/svg">
<rect width="200" height="200" rx="20" fill="url(#paint0_linear_1_49)"/>
<path d="M327.5 117.875L311.525 76.1C310.375 73.25 309.225 69.65 308.075 65.3C307.525 67.45 306.95 69.45 306.35 71.3C305.8 73.15 305.25 74.8 304.7 76.25L288.8 117.875H327.5ZM359.075 158H346.775C345.375 158 344.225 157.65 343.325 156.95C342.425 156.25 341.775 155.35 341.375 154.25L331.85 129.275H284.375L274.85 154.25C274.5 155.2 273.85 156.075 272.9 156.875C271.95 157.625 270.8 158 269.45 158H257.15L300.05 50.3H316.175L359.075 158ZM417.035 100.25C414.635 97.1 412.035 94.9 409.235 93.65C406.485 92.4 403.385 91.775 399.935 91.775C393.235 91.775 388.035 94.2 384.335 99.05C380.685 103.85 378.86 110.875 378.86 120.125C378.86 124.975 379.26 129.125 380.06 132.575C380.91 135.975 382.11 138.775 383.66 140.975C385.26 143.125 387.21 144.725 389.51 145.775C391.81 146.775 394.41 147.275 397.31 147.275C401.56 147.275 405.235 146.325 408.335 144.425C411.435 142.525 414.335 139.85 417.035 136.4V100.25ZM431.735 47.3V158H422.885C420.835 158 419.56 157.025 419.06 155.075L417.785 146.3C414.535 150.15 410.835 153.25 406.685 155.6C402.585 157.9 397.835 159.05 392.435 159.05C388.085 159.05 384.135 158.2 380.585 156.5C377.085 154.8 374.085 152.325 371.585 149.075C369.085 145.775 367.16 141.7 365.81 136.85C364.46 132 363.785 126.425 363.785 120.125C363.785 114.475 364.535 109.225 366.035 104.375C367.535 99.525 369.71 95.325 372.56 91.775C375.41 88.225 378.86 85.45 382.91 83.45C386.96 81.4 391.535 80.375 396.635 80.375C401.235 80.375 405.135 81.125 408.335 82.625C411.585 84.125 414.485 86.25 417.035 89V47.3H431.735ZM486.591 105.725C490.641 105.725 494.191 105.2 497.241 104.15C500.341 103.1 502.916 101.625 504.966 99.725C507.066 97.775 508.641 95.475 509.691 92.825C510.741 90.125 511.266 87.15 511.266 83.9C511.266 77.35 509.216 72.2 505.116 68.45C501.066 64.7 494.891 62.825 486.591 62.825H469.941V105.725H486.591ZM486.591 50.3C493.491 50.3 499.491 51.1 504.591 52.7C509.691 54.3 513.916 56.575 517.266 59.525C520.616 62.425 523.091 65.95 524.691 70.1C526.341 74.25 527.166 78.85 527.166 83.9C527.166 88.95 526.291 93.6 524.541 97.85C522.791 102.05 520.216 105.675 516.816 108.725C513.416 111.775 509.166 114.15 504.066 115.85C499.016 117.5 493.191 118.325 486.591 118.325H469.941V158H453.966V50.3H486.591ZM556.647 81.8V158H542.022V81.8H556.647ZM559.422 58.25C559.422 59.6 559.147 60.9 558.597 62.15C558.047 63.35 557.297 64.425 556.347 65.375C555.447 66.275 554.372 67 553.122 67.55C551.872 68.05 550.572 68.3 549.222 68.3C547.872 68.3 546.597 68.05 545.397 67.55C544.197 67 543.122 66.275 542.172 65.375C541.272 64.425 540.547 63.35 539.997 62.15C539.497 60.9 539.247 59.6 539.247 58.25C539.247 56.85 539.497 55.55 539.997 54.35C540.547 53.1 541.272 52.025 542.172 51.125C543.122 50.175 544.197 49.45 545.397 48.95C546.597 48.4 547.872 48.125 549.222 48.125C550.572 48.125 551.872 48.4 553.122 48.95C554.372 49.45 555.447 50.175 556.347 51.125C557.297 52.025 558.047 53.1 558.597 54.35C559.147 55.55 559.422 56.85 559.422 58.25ZM592.822 47.3V158H578.122V47.3H592.822ZM646.186 80.6C651.786 80.6 656.836 81.525 661.336 83.375C665.886 85.175 669.736 87.8 672.886 91.25C676.086 94.65 678.536 98.775 680.236 103.625C681.936 108.425 682.786 113.825 682.786 119.825C682.786 125.825 681.936 131.25 680.236 136.1C678.536 140.95 676.086 145.075 672.886 148.475C669.736 151.875 665.886 154.5 661.336 156.35C656.836 158.15 651.786 159.05 646.186 159.05C640.536 159.05 635.436 158.15 630.886 156.35C626.386 154.5 622.536 151.875 619.336 148.475C616.136 145.075 613.661 140.95 611.911 136.1C610.211 131.25 609.361 125.825 609.361 119.825C609.361 113.825 610.211 108.425 611.911 103.625C613.661 98.775 616.136 94.65 619.336 91.25C622.536 87.8 626.386 85.175 630.886 83.375C635.436 81.525 640.536 80.6 646.186 80.6ZM646.186 147.65C653.386 147.65 658.761 145.225 662.311 140.375C665.861 135.525 667.636 128.7 667.636 119.9C667.636 111.1 665.861 104.275 662.311 99.425C658.761 94.525 653.386 92.075 646.186 92.075C638.886 92.075 633.436 94.525 629.836 99.425C626.286 104.275 624.511 111.1 624.511 119.9C624.511 128.7 626.286 135.525 629.836 140.375C633.436 145.225 638.886 147.65 646.186 147.65ZM721.496 159.2C715.346 159.2 710.596 157.475 707.246 154.025C703.946 150.575 702.296 145.65 702.296 139.25V93.65H693.446C692.596 93.65 691.871 93.4 691.271 92.9C690.721 92.35 690.446 91.55 690.446 90.5V84.575L702.821 82.85L706.121 60.125C706.321 59.275 706.696 58.625 707.246 58.175C707.846 57.675 708.596 57.425 709.496 57.425H716.921V83H738.521V93.65H716.921V138.275C716.921 141.275 717.646 143.525 719.096 145.025C720.596 146.475 722.496 147.2 724.796 147.2C726.146 147.2 727.296 147.025 728.246 146.675C729.246 146.325 730.096 145.95 730.796 145.55C731.496 145.1 732.096 144.7 732.596 144.35C733.096 144 733.546 143.825 733.946 143.825C734.446 143.825 734.821 143.95 735.071 144.2C735.371 144.4 735.671 144.75 735.971 145.25L740.321 152.3C737.921 154.5 735.071 156.2 731.771 157.4C728.471 158.6 725.046 159.2 721.496 159.2Z" fill="url(#paint1_linear_1_49)"/>
<mask id="mask0_1_49" style="mask-type:luminance" maskUnits="userSpaceOnUse" x="23" y="30" width="154" height="140">
<path d="M23 30H176.634V170H23V30Z" fill="white"/>
</mask>
<g mask="url(#mask0_1_49)">
<path fill-rule="evenodd" clip-rule="evenodd" d="M75.7968 139.359L90.6362 158.646C91.9847 160.398 91.7471 162.875 90.1127 164.361L85.0084 168.992C84.0965 169.818 82.9992 170.186 81.7743 170.075C80.5494 169.965 79.539 169.403 78.7875 168.429L62.3348 147.133L75.7968 139.359ZM157.202 89.8621H172.316C174.735 89.8621 176.69 87.8876 176.686 85.4726C176.68 83.0558 174.71 81.1025 172.295 81.1025H157.181C154.764 81.1025 152.807 83.077 152.813 85.49C152.817 87.9089 154.789 89.8621 157.202 89.8621ZM139.264 50.0674L146.82 36.9803C148.027 34.8879 147.322 32.2044 145.23 30.9912C143.141 29.7798 140.454 30.4869 139.245 32.5812L131.689 45.6683C130.481 47.7606 131.186 50.4441 133.279 51.6574C135.367 52.8688 138.054 52.1617 139.264 50.0674ZM156.75 65.7473L169.157 58.5835C171.265 57.3664 171.986 54.6732 170.77 52.5674C169.553 50.4615 166.86 49.739 164.754 50.9561L152.345 58.1199C150.239 59.3351 149.519 62.0282 150.734 64.136C151.951 66.2418 154.642 66.9625 156.75 65.7473ZM137.233 85.4591L151.87 110.808C154.617 115.567 152.971 121.709 148.213 124.458C143.771 127.022 138.126 125.76 135.158 121.712C118.957 119.247 97.856 121.894 76.871 130.074L56.6993 95.1344C74.2802 81.0658 87.1645 64.2036 93.1304 48.943V48.9411C91.0361 44.3275 92.7575 38.7422 97.232 36.1572C101.992 33.41 108.134 35.056 110.881 39.8145L125.518 65.1638C125.933 64.8431 126.378 64.5436 126.845 64.2732C132.5 61.0081 139.731 62.9459 142.996 68.6008C146.261 74.2576 144.326 81.4889 138.669 84.754C138.201 85.0244 137.722 85.2582 137.233 85.4591ZM71.7996 133.77L50.66 97.1591L33.8557 106.861C23.6453 112.756 20.1136 125.934 26.01 136.144C31.9044 146.355 45.0824 149.886 55.2948 143.992L72.099 134.29L71.7996 133.77Z" fill="white"/>
</g>
<defs>
<linearGradient id="paint0_linear_1_49" x1="194" y1="-4.99999" x2="10" y2="200" gradientUnits="userSpaceOnUse">
<stop stop-color="#C663FE"/>
<stop offset="1" stop-color="#497CFF"/>
</linearGradient>
<linearGradient id="paint1_linear_1_49" x1="742" y1="41" x2="266" y2="158" gradientUnits="userSpaceOnUse">
<stop stop-color="#C663FE"/>
<stop offset="1" stop-color="#497CFF"/>
</linearGradient>
</defs>
</svg>