<svg width="200" height="200" viewBox="0 0 200 200" fill="none" xmlns="http://www.w3.org/2000/svg">
<rect width="200" height="200" rx="20" fill="url(#paint0_linear_1_59)"/>
<mask id="mask0_1_59" style="mask-type:luminance" maskUnits="userSpaceOnUse" x="23" y="30" width="154" height="140">
<path d="M23 30H176.634V170H23V30Z" fill="white"/>
</mask>
<g mask="url(#mask0_1_59)">
<path fill-rule="evenodd" clip-rule="evenodd" d="M75.7968 139.359L90.6362 158.646C91.9847 160.398 91.7471 162.875 90.1127 164.361L85.0084 168.992C84.0965 169.819 82.9992 170.186 81.7743 170.075C80.5494 169.965 79.539 169.403 78.7875 168.429L62.3348 147.133L75.7968 139.359ZM157.202 89.8621H172.316C174.735 89.8621 176.69 87.8877 176.686 85.4727C176.68 83.0558 174.71 81.1026 172.295 81.1026H157.181C154.764 81.1026 152.807 83.0771 152.813 85.4901C152.817 87.9089 154.789 89.8621 157.202 89.8621ZM139.264 50.0675L146.82 36.9803C148.027 34.888 147.322 32.2045 145.23 30.9912C143.141 29.7799 140.454 30.487 139.245 32.5812L131.689 45.6684C130.481 47.7607 131.186 50.4442 133.279 51.6575C135.367 52.8688 138.054 52.1617 139.264 50.0675ZM156.75 65.7473L169.157 58.5836C171.265 57.3664 171.986 54.6733 170.77 52.5674C169.553 50.4616 166.86 49.739 164.754 50.9562L152.345 58.1199C150.239 59.3351 149.519 62.0283 150.734 64.1361C151.951 66.2419 154.642 66.9625 156.75 65.7473ZM137.233 85.4592L151.87 110.809C154.617 115.567 152.971 121.709 148.213 124.458C143.771 127.022 138.126 125.76 135.158 121.713C118.957 119.247 97.856 121.894 76.871 130.074L56.6993 95.1345C74.2802 81.0659 87.1645 64.2037 93.1304 48.9431V48.9411C91.0361 44.3276 92.7575 38.7423 97.232 36.1573C101.992 33.4101 108.134 35.0561 110.881 39.8145L125.518 65.1639C125.933 64.8432 126.378 64.5437 126.845 64.2732C132.5 61.0082 139.731 62.946 142.996 68.6008C146.261 74.2576 144.326 81.489 138.669 84.754C138.201 85.0245 137.722 85.2583 137.233 85.4592ZM71.7996 133.77L50.66 97.1592L33.8557 106.862C23.6453 112.756 20.1136 125.934 26.01 136.144C31.9044 146.355 45.0824 149.886 55.2948 143.992L72.099 134.29L71.7996 133.77Z" fill="white"/>
</g>
<defs>
<linearGradient id="paint0_linear_1_59" x1="194" y1="-4.99999" x2="10" y2="200" gradientUnits="userSpaceOnUse">
<stop stop-color="#C663FE"/>
<stop offset="1" stop-color="#497CFF"/>
</linearGradient>
</defs>
</svg>
