<svg xmlns="http://www.w3.org/2000/svg" xmlns:xlink="http://www.w3.org/1999/xlink" viewBox="0 0 375 374.999991" preserveAspectRatio="xMidYMid meet" version="1.0">
  <defs>
    <clipPath id="f19b175f2b">
      <path d="M 35 46 L 345.632812 46 L 345.632812 329.066406 L 35 329.066406 Z M 35 46 " clip-rule="nonzero"/>
    </clipPath>
  </defs>
  <g clip-path="url(#f19b175f2b)">
    <path fill="#7b48fd" d="M 141.75 267.113281 L 171.753906 306.109375 C 174.480469 309.652344 174 314.660156 170.695312 317.664062 L 160.375 327.027344 C 158.53125 328.699219 156.3125 329.441406 153.835938 329.21875 C 151.359375 328.996094 149.316406 327.859375 147.796875 325.890625 L 114.53125 282.832031 Z M 306.34375 167.035156 L 336.902344 167.035156 C 341.792969 167.035156 345.746094 163.042969 345.738281 158.160156 C 345.726562 153.273438 341.742188 149.324219 336.859375 149.324219 L 306.300781 149.324219 C 301.414062 149.324219 297.457031 153.316406 297.46875 158.195312 C 297.476562 163.085938 301.464844 167.035156 306.34375 167.035156 Z M 270.074219 86.574219 L 285.351562 60.113281 C 287.792969 55.882812 286.367188 50.457031 282.136719 48.003906 C 277.914062 45.554688 272.480469 46.984375 270.035156 51.21875 L 254.757812 77.679688 C 252.316406 81.910156 253.742188 87.335938 257.972656 89.789062 C 262.195312 92.238281 267.628906 90.808594 270.074219 86.574219 Z M 305.429688 118.277344 L 330.515625 103.792969 C 334.777344 101.332031 336.234375 95.886719 333.777344 91.628906 C 331.316406 87.371094 325.871094 85.910156 321.613281 88.371094 L 296.523438 102.855469 C 292.265625 105.3125 290.808594 110.757812 293.265625 115.019531 C 295.726562 119.277344 301.167969 120.734375 305.429688 118.277344 Z M 265.96875 158.132812 L 295.5625 209.386719 C 301.117188 219.007812 297.789062 231.425781 288.167969 236.984375 C 279.1875 242.167969 267.773438 239.617188 261.773438 231.433594 C 229.015625 226.449219 186.351562 231.800781 143.921875 248.339844 L 103.136719 177.695312 C 138.683594 161.15625 177.734375 153.273438 214.492188 153.273438 C 229.015625 153.273438 243.539062 154.535156 257.421875 157.058594 C 259.898438 157.503906 262.695312 157.503906 265.96875 158.132812 Z M 265.96875 158.132812 "/>
  </g>
</svg>
